<svg xmlns:xlink="http://www.w3.org/1999/xlink"  xmlns="http://www.w3.org/2000/svg" width="210" height="9" viewBox="0 0 210 9" fill="none"><SCRIPT xmlns="" id="allow-copy_script"/>
<path d="M209.354 4.85355C209.549 4.65829 209.549 4.34171 209.354 4.14645L206.172 0.964466C205.976 0.769204 205.66 0.769204 205.464 0.964466C205.269 1.15973 205.269 1.47631 205.464 1.67157L208.293 4.5L205.464 7.32843C205.269 7.52369 205.269 7.84027 205.464 8.03553C205.66 8.2308 205.976 8.2308 206.172 8.03553L209.354 4.85355ZM0 5H2.00962V4H0V5ZM6.02885 5H10.0481V4H6.02885V5ZM14.0673 5H18.0865V4H14.0673V5ZM22.1058 5H26.125V4H22.1058V5ZM30.1442 5H34.1635V4H30.1442V5ZM38.1827 5H42.2019V4H38.1827V5ZM46.2211 5H50.2404V4H46.2211V5ZM54.2596 5H58.2788V4H54.2596V5ZM62.2981 5H66.3173V4H62.2981V5ZM70.3365 5H74.3558V4H70.3365V5ZM78.375 5H82.3942V4H78.375V5ZM86.4135 5H90.4327V4H86.4135V5ZM94.4519 5H98.4712V4H94.4519V5ZM102.49 5H106.51V4H102.49V5ZM110.529 5H114.548V4H110.529V5ZM118.567 5H122.587V4H118.567V5ZM126.606 5H130.625V4H126.606V5ZM134.644 5H138.663V4H134.644V5ZM142.683 5H146.702V4H142.683V5ZM150.721 5H154.74V4H150.721V5ZM158.76 5H162.779V4H158.76V5ZM166.798 5H170.817V4H166.798V5ZM174.837 5H178.856V4H174.837V5ZM182.875 5H186.894V4H182.875V5ZM190.913 5H194.933V4H190.913V5ZM198.952 5H202.971V4H198.952V5ZM206.99 5H209V4H206.99V5ZM209.354 4.85355C209.549 4.65829 209.549 4.34171 209.354 4.14645L206.172 0.964466C205.976 0.769204 205.66 0.769204 205.464 0.964466C205.269 1.15973 205.269 1.47631 205.464 1.67157L208.293 4.5L205.464 7.32843C205.269 7.52369 205.269 7.84027 205.464 8.03553C205.66 8.2308 205.976 8.2308 206.172 8.03553L209.354 4.85355ZM0 5H2.00962V4H0V5ZM6.02885 5H10.0481V4H6.02885V5ZM14.0673 5H18.0865V4H14.0673V5ZM22.1058 5H26.125V4H22.1058V5ZM30.1442 5H34.1635V4H30.1442V5ZM38.1827 5H42.2019V4H38.1827V5ZM46.2211 5H50.2404V4H46.2211V5ZM54.2596 5H58.2788V4H54.2596V5ZM62.2981 5H66.3173V4H62.2981V5ZM70.3365 5H74.3558V4H70.3365V5ZM78.375 5H82.3942V4H78.375V5ZM86.4135 5H90.4327V4H86.4135V5ZM94.4519 5H98.4712V4H94.4519V5ZM102.49 5H106.51V4H102.49V5ZM110.529 5H114.548V4H110.529V5ZM118.567 5H122.587V4H118.567V5ZM126.606 5H130.625V4H126.606V5ZM134.644 5H138.663V4H134.644V5ZM142.683 5H146.702V4H142.683V5ZM150.721 5H154.74V4H150.721V5ZM158.76 5H162.779V4H158.76V5ZM166.798 5H170.817V4H166.798V5ZM174.837 5H178.856V4H174.837V5ZM182.875 5H186.894V4H182.875V5ZM190.913 5H194.933V4H190.913V5ZM198.952 5H202.971V4H198.952V5ZM206.99 5H209V4H206.99V5Z" fill="#27ADE7"/>
</svg>